<?xml version="1.0" standalone="no"?>
<!DOCTYPE svg PUBLIC "-//W3C//DTD SVG 20010904//EN"
 "http://www.w3.org/TR/2001/REC-SVG-20010904/DTD/svg10.dtd">
<svg version="1.0" xmlns="http://www.w3.org/2000/svg"
 width="447.000000pt" height="298.000000pt" viewBox="0 0 447.000000 298.000000"
 preserveAspectRatio="xMidYMid meet">

<g transform="translate(0.000000,298.000000) scale(0.100000,-0.100000)"
fill="#000000" stroke="none">
<path d="M1995 2631 c-138 -10 -377 -83 -427 -130 -21 -19 -25 1 56 -250 31
-95 56 -181 56 -190 0 -9 -30 -56 -66 -104 l-67 -89 -51 6 c-29 4 -85 16 -126
26 l-75 19 -61 -40 c-34 -22 -68 -47 -76 -57 -8 -9 -26 -57 -42 -107 -15 -49
-46 -146 -68 -215 -22 -68 -42 -136 -43 -150 -2 -14 -15 -58 -29 -99 -14 -41
-25 -75 -23 -76 2 -2 351 -217 354 -219 0 -1 5 -19 9 -41 7 -40 7 -40 -14 -22
-11 11 -25 16 -30 13 -11 -7 -306 -364 -310 -375 -1 -4 46 0 105 11 59 10 117
16 128 13 11 -2 41 -32 68 -65 28 -35 58 -62 73 -66 15 -4 58 -1 96 6 l69 13
78 -41 c43 -23 85 -42 92 -42 8 0 57 -43 109 -95 l95 -96 360 3 360 3 315 52
315 52 49 53 c27 29 120 132 206 228 87 96 166 183 176 192 15 13 74 23 253
42 128 15 238 26 245 26 21 0 -63 50 -203 120 -77 38 -145 70 -151 70 -12 0
-609 -288 -629 -304 -22 -17 -8 15 51 116 33 55 59 89 72 92 12 2 81 12 155
22 l134 18 22 36 c52 82 137 231 134 235 -4 3 -208 -20 -266 -31 -39 -7 -40
-3 -13 42 23 37 24 37 200 59 69 9 130 21 137 28 17 18 153 260 149 265 -5 4
-267 -28 -278 -35 -5 -2 -8 0 -8 6 0 11 55 50 133 95 30 17 60 46 83 80 l35
53 -3 136 -3 136 -115 -63 c-114 -62 -115 -63 -147 -127 -30 -60 -32 -71 -32
-178 -1 -69 -5 -111 -10 -105 -5 5 -34 67 -64 139 -30 71 -59 131 -64 132 -4
2 -41 -58 -81 -133 l-73 -136 35 -81 c19 -45 46 -110 61 -145 l26 -63 -22 -40
c-13 -21 -25 -39 -28 -39 -3 0 -17 28 -30 63 -35 93 -93 217 -101 217 -4 0
-27 -38 -51 -84 l-44 -85 -11 42 c-45 166 -57 204 -76 231 -26 38 -92 127
-226 308 -56 75 -102 141 -102 146 0 4 31 104 69 221 l69 212 -22 13 c-37 24
-198 84 -281 105 -65 17 -119 22 -285 25 -113 2 -250 1 -305 -3z m508 -62 c76
-10 242 -61 271 -82 18 -13 17 -15 -17 -26 -32 -11 -44 -10 -92 8 -101 38
-216 52 -429 52 -229 -1 -336 -12 -445 -46 -75 -24 -80 -24 -117 -9 l-39 16
50 19 c135 53 220 71 360 78 158 9 357 4 458 -10z m-713 -209 c58 -23 108 -45
112 -49 7 -6 41 -162 63 -285 6 -34 -12 -14 -142 160 -169 226 -172 230 -152
221 8 -3 61 -24 119 -47z m36 -221 c63 -83 113 -153 111 -156 -3 -2 -47 14
-98 35 l-94 40 -43 134 c-23 73 -45 142 -48 153 -7 26 27 -15 172 -206z m943
183 c-6 -18 -15 -30 -19 -27 -5 3 -1 19 8 35 21 36 25 33 11 -8z m-284 -22 c3
-5 2 -10 -4 -10 -18 0 -321 -221 -316 -230 8 -13 -68 -69 -90 -67 -12 1 -19
-3 -17 -11 1 -8 -2 -11 -8 -7 -6 4 -18 1 -26 -6 -8 -6 -17 -9 -21 -5 -3 3 -19
73 -34 156 -15 83 -31 159 -34 170 -6 20 -1 20 269 20 172 0 277 -4 281 -10z
m-44 -84 c1 -6 1 -16 0 -23 -1 -6 3 -14 8 -17 5 -3 12 11 16 32 4 20 9 33 11
27 2 -5 -3 -32 -10 -60 -10 -33 -15 -42 -15 -25 -1 21 -3 22 -12 10 -9 -12
-10 -12 -5 4 5 16 2 17 -21 12 -26 -6 -27 -5 -7 6 19 11 20 15 8 26 -8 7 -12
17 -9 22 7 12 35 1 36 -14z m-37 -11 c3 -10 -1 -15 -14 -15 -10 0 -21 -4 -24
-9 -3 -5 -16 -11 -28 -14 -22 -6 -22 -5 2 13 14 11 30 24 35 29 14 14 22 13
29 -4z m242 -40 c-14 -22 -15 -25 -1 -25 8 0 15 5 15 11 0 5 5 7 11 3 8 -5 6
-10 -5 -16 -9 -5 -16 -16 -16 -23 0 -8 -4 -15 -10 -15 -5 0 -10 5 -10 11 0 18
-23 4 -26 -15 -4 -26 19 -46 44 -39 26 6 36 31 20 50 -10 12 -9 14 8 11 13 -2
19 3 19 14 0 10 6 23 13 30 8 8 7 -4 -4 -42 -9 -30 -19 -58 -22 -61 -18 -16
-146 -59 -153 -52 -5 5 20 48 57 96 62 82 96 117 60 62z m-199 -67 c-3 -8 -6
-5 -6 6 -1 11 2 17 5 13 3 -3 4 -12 1 -19z m223 -8 c0 -10 -31 -18 -48 -13 -6
3 -10 8 -8 11 6 10 56 11 56 2z m-812 -107 c50 -20 92 -40 92 -44 0 -4 -62
-51 -137 -105 -76 -54 -208 -149 -293 -210 -85 -62 -156 -111 -158 -109 -2 2
48 72 110 157 63 84 147 199 188 256 52 71 80 100 90 97 8 -3 57 -22 108 -42z
m411 -19 c2 -2 -21 -4 -53 -4 -31 0 -55 4 -52 9 5 8 95 3 105 -5z m398 0 c-3
-3 -12 -4 -19 -1 -8 3 -5 6 6 6 11 1 17 -2 13 -5z m1088 -146 c-43 -73 -81
-137 -86 -143 -5 -5 -9 15 -9 49 0 41 8 75 25 115 22 48 33 60 83 87 31 17 58
30 60 29 2 -2 -31 -63 -73 -137z m-1219 -145 l102 -251 -43 -31 c-71 -51 -658
-502 -682 -524 l-22 -20 -78 71 c-43 39 -109 102 -146 140 l-68 69 146 294
c81 162 171 342 201 402 l55 107 217 -2 216 -3 102 -252z m19 229 c-3 -3 -11
0 -18 7 -9 10 -8 11 6 5 10 -3 15 -9 12 -12z m146 -134 c118 -72 240 -147 272
-166 31 -19 57 -38 57 -41 0 -5 -347 -121 -363 -121 -8 0 -187 437 -187 456 0
8 13 1 221 -128z m-774 75 c-13 -27 -95 -193 -182 -370 -87 -178 -161 -323
-164 -323 -11 0 -281 265 -281 275 1 12 -23 -6 345 257 160 115 293 208 298
208 4 0 -3 -21 -16 -47z m817 -49 c5 -12 1 -12 -22 0 -15 8 -36 21 -47 30 -18
14 -15 14 22 -1 23 -8 44 -22 47 -29z m127 -51 c13 -17 13 -17 -6 -3 -11 8
-22 16 -24 17 -2 2 0 3 6 3 6 0 17 -8 24 -17z m42 -61 c6 -8 -6 -4 -26 8 -20
12 -40 27 -44 32 -8 14 55 -23 70 -40z m547 -113 c0 -88 -4 -158 -8 -155 -5 3
-24 43 -42 90 l-32 84 38 71 c21 39 40 71 41 71 2 0 3 -72 3 -161z m-500 91
l24 -34 -24 17 c-13 9 -25 26 -27 39 -2 12 -2 20 0 17 2 -2 14 -20 27 -39z
m855 -139 c-15 -14 -275 -170 -275 -165 0 10 54 91 77 116 20 21 41 29 97 38
66 11 95 16 106 19 2 0 0 -3 -5 -8z m-850 -31 c-3 -5 -16 -10 -28 -9 -21 0
-21 1 -2 9 28 12 37 12 30 0z m111 -47 c8 -32 18 -67 20 -78 l5 -20 -13 20
c-13 21 -15 26 -17 50 0 8 -6 15 -12 15 -6 0 -9 -10 -6 -22 3 -13 1 -32 -3
-43 -7 -15 -9 -10 -9 23 -1 26 -5 41 -11 37 -5 -3 -10 -1 -10 5 0 6 -5 8 -12
4 -7 -4 -8 -3 -4 4 5 9 13 9 26 2 24 -13 33 0 24 35 -13 51 6 23 22 -32z m-80
-51 c-17 -16 -18 -16 -5 5 7 12 15 20 18 17 3 -2 -3 -12 -13 -22z m-1473 -371
c-25 -53 -62 -133 -81 -178 -20 -45 -37 -81 -39 -79 -8 8 -103 564 -103 603 0
11 48 -31 134 -116 l134 -134 -45 -96z m1450 334 c-3 -9 -8 -14 -10 -11 -3 3
-2 9 2 15 9 16 15 13 8 -4z m276 -151 c-1 -91 -5 -162 -10 -157 -13 13 -69
154 -69 174 0 18 67 149 76 149 3 0 4 -75 3 -166z m-664 126 c-16 -18 -16 -20
-2 -20 10 0 17 5 17 10 0 7 5 6 13 -1 10 -9 11 -32 4 -98 -11 -116 -18 -116
-12 0 3 52 3 89 0 83 -3 -6 -18 -9 -34 -6 -24 3 -29 0 -35 -22 -6 -25 -26 -37
-26 -15 0 5 -4 7 -10 4 -5 -3 -10 -3 -10 0 0 10 54 54 68 55 7 0 15 7 18 15 4
8 11 15 17 15 5 0 2 -9 -8 -20z m522 -22 c-3 -8 -6 -5 -6 6 -1 11 2 17 5 13 3
-3 4 -12 1 -19z m-347 -34 c0 -8 4 -14 8 -14 4 0 13 -13 19 -30 17 -45 1 -35
-24 15 -25 50 -28 59 -13 50 6 -3 10 -13 10 -21z m115 -84 c-15 -29 -35 -40
-35 -19 0 5 5 7 10 4 6 -3 10 3 10 14 0 16 8 24 28 30 1 1 -4 -12 -13 -29z
m21 -181 c-48 -165 -66 -210 -175 -429 -120 -242 -121 -244 -115 -185 3 33 16
116 29 185 l22 125 144 247 c78 136 144 246 146 244 1 -1 -21 -85 -51 -187z
m275 58 l55 -133 -81 -140 c-88 -150 -80 -141 -320 -337 l-100 -82 99 130 c55
72 121 156 147 189 39 48 49 69 57 120 15 99 76 386 82 386 3 0 30 -60 61
-133z m-786 113 c-3 -5 -16 -15 -28 -21 -21 -10 -21 -9 2 10 25 23 36 27 26
11z m439 -25 c-5 -11 -2 -13 10 -9 12 5 15 2 10 -10 -3 -9 -10 -16 -14 -16
-11 0 -21 30 -14 41 9 14 14 10 8 -6z m152 -77 c-3 -51 -9 -141 -12 -200 l-6
-106 -42 25 -42 26 31 116 c47 170 66 231 71 231 3 0 3 -42 0 -92z m634 85 c0
-5 -12 -15 -28 -24 -15 -9 -78 -46 -141 -82 -62 -37 -110 -60 -107 -52 3 8 21
40 40 70 38 58 37 58 156 79 41 8 76 14 78 15 1 1 2 -2 2 -6z m-1284 -32 c-4
-5 -1 -12 4 -14 6 -3 5 -4 -2 -3 -15 3 -23 26 -8 26 6 0 9 -4 6 -9z m-27 -14
c-2 -1 -13 -9 -24 -17 -19 -14 -19 -14 -6 3 7 9 18 17 24 17 6 0 8 -1 6 -3z
m-140 -124 c0 -25 -1 -26 -9 -8 -5 12 -9 14 -9 6 -1 -8 -4 -11 -8 -8 -3 4 -12
-1 -19 -11 -7 -9 -14 -12 -14 -5 0 9 46 51 58 53 1 0 2 -12 1 -27z m431 -58
c-7 -45 -7 -46 -9 -13 -1 32 8 74 14 66 1 -2 -1 -25 -5 -53z m447 8 c-3 -10
-5 -2 -5 17 0 19 2 27 5 18 2 -10 2 -26 0 -35z m873 -45 l95 -43 -120 -12
c-185 -18 -173 -22 -123 42 23 30 45 55 48 55 3 0 48 -19 100 -42z m-272 -23
c-3 -3 -39 -31 -80 -63 -42 -31 -154 -117 -249 -191 -179 -139 -169 -133 -506
-292 -57 -26 -103 -46 -103 -45 0 3 69 61 277 228 123 100 149 116 390 237
231 116 288 143 271 126z m36 -17 c-10 -13 -66 -75 -124 -138 -58 -64 -158
-176 -224 -249 -65 -73 -122 -129 -127 -124 -4 4 -17 33 -29 63 -19 48 -20 55
-6 66 74 54 466 355 490 376 38 33 45 36 20 6z m-1729 -18 c-10 -11 -21 -18
-23 -15 -3 3 3 12 14 20 27 20 30 18 9 -5z m-135 -60 c0 -5 -2 -10 -4 -10 -3
0 -8 5 -11 10 -3 6 -1 10 4 10 6 0 11 -4 11 -10z m-45 -10 c-11 -5 -31 -8 -45
-8 -23 0 -22 1 5 8 42 11 65 11 40 0z m102 -62 c-3 -7 -5 -2 -5 12 0 14 2 19
5 13 2 -7 2 -19 0 -25z m-399 -28 c7 -11 11 -20 9 -20 -2 0 -12 9 -22 20 -10
11 -14 20 -9 20 5 0 15 -9 22 -20z m617 0 c10 -11 16 -20 13 -20 -3 0 -13 9
-23 20 -10 11 -16 20 -13 20 3 0 13 -9 23 -20z m-218 -242 c-1 -46 -3 -9 -3
82 0 91 2 128 3 83 2 -46 2 -120 0 -165z m-343 186 c7 -19 2 -18 -19 6 -16 17
-16 20 -3 15 9 -4 19 -13 22 -21z m726 -89 c6 3 7 -1 4 -9 -5 -12 -17 -5 -55
31 -27 25 -49 49 -49 53 0 4 20 -13 45 -37 25 -24 50 -41 55 -38z m307 13 c-2
-13 -4 -3 -4 22 0 25 2 35 4 23 2 -13 2 -33 0 -45z m-912 -43 c5 -6 19 -22 30
-35 16 -20 14 -19 -15 5 -20 17 -47 44 -60 60 l-24 30 29 -25 c16 -14 34 -30
40 -35z m671 -47 l29 -32 -32 25 c-18 13 -32 27 -32 32 -1 12 4 8 35 -25z
m230 -35 c-4 -32 -8 -67 -11 -78 -2 -11 -4 -31 -4 -44 -1 -13 -4 -21 -7 -18
-7 7 16 197 24 197 2 0 2 -26 -2 -57z m-756 -76 c0 -6 -11 0 -25 13 -14 13
-25 28 -25 33 0 6 11 0 25 -13 14 -13 25 -28 25 -33z m55 -55 c-3 -3 -11 0
-18 7 -9 10 -8 11 6 5 10 -3 15 -9 12 -12z m22 -24 c-3 -7 -5 -2 -5 12 0 14 2
19 5 13 2 -7 2 -19 0 -25z m658 -9 c11 -16 1 -19 -13 -3 -7 8 -8 14 -3 14 5 0
13 -5 16 -11z"/>
<path d="M2110 2030 c-19 -16 -30 -29 -25 -29 6 0 26 13 45 29 19 17 30 30 24
30 -5 0 -25 -13 -44 -30z"/>
<path d="M2545 2027 l-20 -20 21 11 c12 6 24 8 28 5 3 -3 6 -1 6 5 0 20 -15
20 -35 -1z"/>
<path d="M801 1741 c-39 -49 -141 -191 -141 -196 0 -6 323 -175 327 -171 2 2
-25 89 -62 194 -36 104 -65 195 -65 201 0 23 -30 9 -59 -28z"/>
<path d="M418 1510 c-14 -10 -33 -39 -42 -64 -15 -38 -24 -47 -62 -62 -24 -9
-44 -21 -44 -25 0 -10 65 14 85 31 6 5 22 32 35 59 15 33 33 55 54 65 17 9 24
16 15 16 -9 0 -27 -9 -41 -20z"/>
<path d="M513 1523 c9 -2 23 -2 30 0 6 3 -1 5 -18 5 -16 0 -22 -2 -12 -5z"/>
<path d="M580 1516 c0 -2 7 -7 16 -10 8 -3 12 -2 9 4 -6 10 -25 14 -25 6z"/>
<path d="M627 1489 c7 -7 15 -10 18 -7 3 3 -2 9 -12 12 -14 6 -15 5 -6 -5z"/>
<path d="M700 1449 c14 -12 24 -25 23 -29 -1 -5 8 -6 20 -3 l22 4 -23 -13
c-12 -8 -19 -17 -16 -21 4 -4 16 1 26 10 18 16 22 15 73 -10 30 -15 55 -25 55
-22 0 3 -46 28 -102 55 -62 30 -93 42 -78 29z"/>
<path d="M688 1423 c7 -3 16 -2 19 1 4 3 -2 6 -13 5 -11 0 -14 -3 -6 -6z"/>
<path d="M300 1348 c-1 -5 -4 -12 -5 -18 -1 -5 -3 -13 -4 -17 -2 -5 -6 1 -11
12 -8 19 -9 19 -9 -3 -1 -13 -15 -43 -32 -67 -17 -24 -28 -48 -25 -54 4 -6 58
-27 120 -47 l114 -36 17 -63 c25 -93 59 -129 142 -148 38 -9 87 -19 111 -22
27 -4 46 -14 52 -26 6 -10 22 -69 36 -131 17 -77 32 -121 47 -136 49 -53 44
-56 212 147 86 105 157 193 157 198 1 8 -185 130 -274 180 -28 15 -48 33 -48
43 0 9 11 50 25 90 14 40 25 77 25 81 0 14 -35 15 -76 3 -23 -7 -162 -31 -310
-54 -148 -22 -280 -43 -294 -46 -20 -4 -22 -3 -10 5 8 6 26 11 40 11 14 0 32
4 39 9 10 6 0 8 -27 4 -26 -3 -42 -2 -42 5 0 5 10 8 23 5 22 -4 22 -4 2 12
-20 17 -20 17 4 10 16 -5 21 -4 17 4 -5 7 -1 9 8 5 9 -3 16 -1 16 5 0 6 -6 11
-14 11 -8 0 -17 8 -19 18 -3 9 -6 14 -7 10z"/>
<path d="M360 1280 c8 -5 22 -10 30 -10 13 0 13 1 0 10 -8 5 -22 10 -30 10
-13 0 -13 -1 0 -10z"/>
<path d="M448 1283 c12 -2 30 -2 40 0 9 3 -1 5 -23 4 -22 0 -30 -2 -17 -4z"/>
</g>
</svg>
